<svg xmlns="http://www.w3.org/2000/svg" viewBox="0 0 260 1200" preserveAspectRatio="xMidYMid slice">
<defs>
  <linearGradient id="bg" x1="0" y1="0" x2="1" y2="1"><stop stop-color="#18110d"/><stop offset=".48" stop-color="#0f0b09"/><stop offset="1" stop-color="#080605"/></linearGradient>
  <linearGradient id="wood" x1="0" y1="0" x2="0" y2="1"><stop stop-color="#604023"/><stop offset=".45" stop-color="#27180f"/><stop offset="1" stop-color="#0f0a07"/></linearGradient>
  <radialGradient id="glow"><stop stop-color="#dfaa56" stop-opacity=".65"/><stop offset="1" stop-color="#dfaa56" stop-opacity="0"/></radialGradient>
  <filter id="grain"><feTurbulence baseFrequency=".65" numOctaves="3" type="fractalNoise"/><feColorMatrix values="1 0 0 0 0 0 1 0 0 0 0 0 1 0 0 0 0 0 .18 0"/></filter>
</defs>
<rect width="260" height="1200" fill="url(#bg)"/>
<rect x="8" y="0" width="12" height="1200" fill="url(#wood)"/>
<rect x="240" y="0" width="12" height="1200" fill="url(#wood)"/>
<path d="M20 6h220M20 1192h220" stroke="#b6863c" stroke-width="2" opacity=".72"/>
<circle cx="130" cy="75" r="88" fill="url(#glow)"/>
<g transform="translate(24 760)" opacity=".96">
  <rect x="0" y="218" width="212" height="190" fill="#0c0907"/>
  <path d="M18 230V92l34-42 34 42v138M126 230V115l30-35 30 35v115" fill="#1b120d" stroke="#8f622f" stroke-width="2"/>
  <path d="M0 218h212M12 230h188M30 250h152" stroke="#b27d37" opacity=".75"/>
  <g fill="#d7a14b" opacity=".68"><rect x="30" y="128" width="20" height="30"/><rect x="60" y="128" width="20" height="30"/><rect x="135" y="145" width="18" height="27"/><rect x="162" y="145" width="18" height="27"/></g>
  <path d="M58 218v-56h34v56M145 218v-40h28v40" fill="#080605" stroke="#75502a"/>
  <path d="M-10 274Q45 248 95 277T222 270V412H-10Z" fill="#120d0a"/>
  <circle cx="104" cy="98" r="42" fill="url(#glow)" opacity=".5"/>
</g>
<g opacity=".4" fill="none" stroke="#8a6436"><circle cx="130" cy="660" r="44" stroke-width="2"/><circle cx="130" cy="660" r="8" stroke-width="3"/><circle cx="130" cy="631" r="10"/><circle cx="156" cy="650" r="10"/><circle cx="146" cy="681" r="10"/><circle cx="114" cy="681" r="10"/><circle cx="104" cy="650" r="10"/></g>
<rect width="260" height="1200" filter="url(#grain)" opacity=".35"/>
</svg>